<svg width="30" height="30" viewBox="0 0 30 30" fill="none" xmlns="http://www.w3.org/2000/svg">
    <g clip-path="url(#clip0)">
        <path d="M27.495 25.9645C27.0737 25.9443 26.6618 25.8315 26.2877 25.6338C26.0212 25.5236 25.7492 25.4276 25.4728 25.346L23.8551 24.7887L21.4406 23.9253C21.329 23.8825 21.2078 23.8719 21.0905 23.8947C20.1408 24.1437 19.1932 24.3989 18.2475 24.6601C17.1549 24.9602 16.0744 25.2725 14.9819 25.5787C14.7344 25.6455 14.4764 25.662 14.2226 25.6274C13.9688 25.5927 13.7242 25.5075 13.503 25.3766C12.6519 24.8867 11.8068 24.3907 10.9618 23.8947L9.41046 23.0067L7.87122 22.0943L6.39235 21.1696C6.07243 20.9737 5.75251 20.7838 5.43863 20.5573C5.09211 20.3227 4.81673 19.995 4.6433 19.6107C4.46987 19.2265 4.40523 18.8009 4.45659 18.3815C4.50795 17.9621 4.6733 17.5654 4.93414 17.2359C5.19498 16.9064 5.54103 16.657 5.9336 16.5156C6.23312 16.4068 6.55408 16.3728 6.8693 16.4165C7.18452 16.4602 7.48471 16.5803 7.74446 16.7667L8.5171 17.2076L10.1771 18.1935L11.4507 18.959L13.3219 20.0674C13.7686 20.3368 14.2153 20.6124 14.668 20.8696C14.752 20.8994 14.8435 20.8994 14.9276 20.8696C15.3078 20.7777 15.6821 20.6736 16.0563 20.5756L17.5714 20.1653L20.6137 19.3325C21.114 19.186 21.6475 19.2075 22.1348 19.3938C22.7384 19.6203 23.3903 19.8224 24.0181 20.049L26.6076 20.9798C27.1268 21.1696 27.6459 21.3778 28.165 21.5554C28.4497 21.6674 28.7092 21.8367 28.9278 22.0531C29.1463 22.2695 29.3195 22.5285 29.4368 22.8145C29.5541 23.1006 29.6131 23.4078 29.6103 23.7176C29.6075 24.0274 29.543 24.3334 29.4205 24.6173C29.2723 25.0135 29.0086 25.3547 28.6647 25.5953C28.3208 25.836 27.9128 25.9647 27.495 25.9645Z" fill="#F37C4A" fill-opacity="0.75"/>
        <path d="M20.2998 29.6081H13.002C12.6411 29.6206 12.2864 29.5107 11.994 29.2958C11.6258 29.0263 11.2093 28.8304 10.7867 28.5916L9.09659 27.5689L7.66601 26.681L6.10263 25.7257L4.70223 24.8439L3.12074 23.9008L1.62979 23.0067L0.603637 22.3944C0.43961 22.2803 0.301789 22.1316 0.199584 21.9585C0.0973789 21.7854 0.0331975 21.592 0.0114223 21.3914C-0.0103528 21.1908 0.0107909 20.9879 0.0734098 20.7964C0.136029 20.6048 0.238648 20.4293 0.374261 20.2817C0.607554 20.0602 0.911768 19.9314 1.23109 19.919C1.55041 19.9066 1.86342 20.0115 2.11269 20.2143C2.46503 20.4628 2.83415 20.6859 3.21732 20.8818L4.98593 21.9596L6.34408 22.7863L8.01008 23.7967L9.47688 24.6295L11.0584 25.5909L12.3743 26.4054C12.4769 26.4666 12.5674 26.5462 12.67 26.6136C12.9395 26.8149 13.265 26.9242 13.5996 26.9259C15.3018 26.9259 17.004 26.9259 18.7123 26.9259H27.6942C27.8891 26.9148 28.0839 26.95 28.2631 27.0287C28.4423 27.1073 28.6009 27.2273 28.7264 27.3791C28.946 27.6487 29.0564 27.9929 29.0351 28.342C29.0138 28.6912 28.8625 29.019 28.6117 29.259C28.49 29.3794 28.3453 29.4731 28.1864 29.5342C28.0275 29.5953 27.8579 29.6225 27.6881 29.6142H20.2998V29.6081Z" fill="#F37C4A" fill-opacity="0.75"/>
        <path d="M11.0885 16.9994L9.3501 15.9461C9.68209 15.3031 10.0201 14.6724 10.3461 14.0355L11.493 11.7942C11.6861 11.4146 11.8913 11.041 12.0966 10.6614C12.4346 10.0122 12.7666 9.36313 13.1046 8.71402C13.1866 8.53874 13.311 8.38732 13.4661 8.27384C13.6212 8.16035 13.8021 8.08849 13.9919 8.06491L14.0342 8.35272C14.109 8.95133 14.3788 9.50741 14.8008 9.93264C15.0866 10.2306 15.448 10.4425 15.8451 10.545C15.9779 10.5818 15.9839 10.6736 16.002 10.7716C16.1346 11.485 16.5003 12.1322 17.0402 12.6087C17.371 12.9124 17.7664 13.1345 18.1957 13.2577C18.625 13.3809 19.0765 13.4019 19.5151 13.319C19.6418 13.319 19.6841 13.319 19.7082 13.4476C19.9054 14.4478 20.1066 15.446 20.3119 16.4421L20.5714 17.7404L20.2998 17.82L18.7062 18.2547L15.5131 19.1488C15.3803 19.1855 15.2535 19.259 15.1207 19.2896C15.0372 19.3084 14.9499 19.2976 14.8732 19.259C14.4145 18.9957 13.9618 18.7201 13.5091 18.4446C13.0563 18.169 12.7123 17.9731 12.3018 17.7281C12.2746 17.6955 12.255 17.6571 12.2445 17.6158C12.234 17.5744 12.233 17.5311 12.2414 17.4893C12.4406 16.4605 12.6459 15.4378 12.8451 14.4274C12.8451 14.3784 12.8813 14.3295 12.8451 14.2866C12.8102 14.1964 12.7699 14.1084 12.7243 14.0233C12.6519 14.0784 12.5553 14.1212 12.5131 14.1947C12.0905 14.9969 11.6801 15.8053 11.2636 16.6075L11.0885 16.9994Z" fill="#F37C4A" fill-opacity="0.75"/>
        <path d="M5.78874 13.6865C5.80498 14.3536 5.56003 15.0001 5.10751 15.4844C4.65499 15.9687 4.03177 16.2514 3.37425 16.2707C2.69867 16.2707 2.05076 15.9984 1.57305 15.5138C1.09534 15.0291 0.826965 14.3718 0.826965 13.6865C0.826965 13.0011 1.09534 12.3438 1.57305 11.8592C2.05076 11.3745 2.69867 11.1023 3.37425 11.1023C4.03177 11.1215 4.65499 11.4042 5.10751 11.8885C5.56003 12.3729 5.80498 13.0193 5.78874 13.6865Z" fill="#F37C4A" fill-opacity="0.75"/>
        <path d="M13.9557 3.6436C14.2938 3.70484 14.6258 3.7722 14.9638 3.82119C16.1797 4.00523 17.4189 3.95328 18.6157 3.6681C18.7847 3.63135 18.839 3.66809 18.8692 3.83343C18.9513 4.23331 18.9463 4.64655 18.8545 5.04426C18.7628 5.44197 18.5865 5.81455 18.338 6.13595C18.1409 6.39867 17.8943 6.61914 17.6127 6.78462C17.331 6.95009 17.0198 7.05728 16.697 7.09998C16.3743 7.14269 16.0464 7.12007 15.7323 7.03343C15.4182 6.94679 15.1242 6.79785 14.8672 6.59522C14.4421 6.26777 14.1239 5.81825 13.9539 5.30501C13.7838 4.79178 13.7697 4.23853 13.9135 3.71708C13.9254 3.69136 13.9395 3.66677 13.9557 3.6436Z" fill="#F37C4A" fill-opacity="0.75"/>
        <path d="M20.1066 13.1659L20.4145 13.0312L22.6781 11.9841C22.7616 11.9515 22.8541 11.9515 22.9376 11.9841C23.0744 12.0516 23.2265 12.0809 23.3782 12.0691C23.5299 12.0572 23.6758 12.0046 23.8008 11.9167C23.9653 11.8091 24.0967 11.6567 24.1799 11.477C24.2632 11.2972 24.2949 11.0974 24.2716 10.9002C24.246 10.7003 24.1657 10.5118 24.0398 10.3559C23.9139 10.2 23.7475 10.0831 23.5593 10.0184C23.3452 9.95815 23.1169 9.97824 22.9163 10.075C22.7156 10.1717 22.556 10.3386 22.4668 10.545C22.4298 10.6387 22.3718 10.7223 22.2974 10.7893C22.2231 10.8563 22.1343 10.9047 22.0382 10.9308C21.9779 10.9308 21.9235 10.992 21.839 11.0349C21.8418 10.9322 21.8519 10.8299 21.8692 10.7287C21.9099 10.4538 22.026 10.196 22.2043 9.98486C22.3825 9.7737 22.6157 9.61767 22.8773 9.53459C23.1298 9.44681 23.4024 9.4372 23.6604 9.50699C23.9183 9.57677 24.15 9.7228 24.3259 9.92651C24.4583 10.121 24.5754 10.3257 24.676 10.5389C24.723 10.6277 24.7972 10.6986 24.8873 10.741C25.1334 10.8264 25.3406 10.9994 25.4705 11.228C25.6003 11.4566 25.6441 11.7252 25.5936 11.9841C25.5374 12.2365 25.3856 12.4565 25.171 12.5964C24.676 12.9026 24.175 13.2088 23.674 13.5027L22.1529 14.3784C22.0358 14.4654 21.9018 14.5261 21.7597 14.5564C21.6177 14.5866 21.4709 14.5858 21.3292 14.5539C21.1876 14.522 21.0542 14.4598 20.9381 14.3715C20.822 14.2832 20.7258 14.1707 20.6559 14.0416C20.4748 13.7599 20.2998 13.466 20.1066 13.1659Z" fill="#F37C4A" fill-opacity="0.75"/>
        <path d="M18.4286 0L18.6942 1.46969C18.7424 1.73301 18.7787 1.9902 18.839 2.2474C18.8692 2.38212 18.839 2.44336 18.7002 2.4801C17.5565 2.80767 16.3582 2.89108 15.1811 2.72505C14.7863 2.65632 14.3954 2.56638 14.01 2.4556C13.982 2.43706 13.9589 2.41162 13.9431 2.38165C13.9273 2.35168 13.9192 2.31814 13.9195 2.28414C14.0402 1.57991 14.173 0.881813 14.2998 0.177587C14.2998 0.0183711 14.3964 -3.42188e-08 14.5352 0.0367422C15.2611 0.231085 16.0136 0.303487 16.7626 0.251072C17.2274 0.21433 17.6921 0.122474 18.1509 0.0551134L18.4286 0ZM15.8209 2.06369C15.8994 2.376 15.8994 2.376 16.2253 2.376H16.4668C16.829 2.376 16.841 2.37599 16.9497 2.05144C17.2153 1.9902 17.2334 1.96571 17.2394 1.68402C17.2394 1.51255 17.2394 1.34109 17.2394 1.17575C17.2394 1.01041 17.1911 0.94305 17.0523 0.930802C16.9135 0.918555 16.9074 0.857318 16.9135 0.753215C16.9187 0.726077 16.9174 0.69806 16.9096 0.671553C16.9019 0.645046 16.8879 0.620835 16.8689 0.600985C16.85 0.581134 16.8265 0.566234 16.8006 0.557553C16.7748 0.548873 16.7472 0.54667 16.7203 0.551133C16.4931 0.538665 16.2654 0.538665 16.0382 0.551133C15.9718 0.551133 15.9054 0.649112 15.8571 0.722597C15.8342 0.774665 15.8219 0.830908 15.8209 0.887936C15.5432 0.949173 15.5191 0.979792 15.5191 1.26148C15.5191 1.3962 15.5191 1.53092 15.5191 1.67177C15.5131 1.95958 15.5493 1.9902 15.8209 2.06369Z" fill="#F37C4A" fill-opacity="0.75"/>
        <path d="M21.3018 11.2676L20.6499 11.5615C20.3481 11.7024 20.0463 11.8677 19.7505 11.9963C19.4997 12.1036 19.2289 12.1542 18.9568 12.1447C18.6848 12.1351 18.418 12.0657 18.1751 11.9412C17.9123 11.7998 17.683 11.6023 17.5027 11.3623C17.3224 11.1224 17.1955 10.8456 17.1308 10.5511C17.6453 10.3829 18.0956 10.057 18.42 9.61835C18.7443 9.17968 18.9265 8.64979 18.9417 8.10165C19.1871 8.17341 19.4004 8.32922 19.5453 8.54256C19.992 9.23454 20.4386 9.92652 20.8793 10.6185L21.3018 11.2676Z" fill="#F37C4A" fill-opacity="0.75"/>
        <path d="M29.505 22.4434C29.7223 22.7398 29.8727 23.081 29.9457 23.4429C30.0188 23.8047 30.0126 24.1785 29.9276 24.5377C29.8638 24.8641 29.7301 25.1723 29.536 25.4405C29.3418 25.7088 29.092 25.9304 28.8041 26.0899C28.5162 26.2494 28.1972 26.3427 27.8699 26.3634C27.5425 26.3841 27.2146 26.3315 26.9095 26.2094L25.5573 25.744L22.8712 24.7826C22.4487 24.6295 22.0382 24.4581 21.6157 24.3111C21.5091 24.2808 21.3963 24.2808 21.2897 24.3111C20.8672 24.4152 20.4447 24.5315 20.0282 24.6479L16.6298 25.6154C16.2012 25.7379 15.7726 25.8788 15.3441 25.9951C15.0523 26.0792 14.7468 26.1025 14.446 26.0636C14.1451 26.0246 13.8551 25.9243 13.5936 25.7685C13.0322 25.4562 12.495 25.1133 11.9396 24.7826L10.5573 23.9559L8.87324 22.9639L7.38833 22.0759C6.85714 21.7575 6.32596 21.4636 5.79477 21.1329C5.62045 21.0229 5.462 20.889 5.32394 20.7348C5.69215 20.9614 6.05433 21.188 6.42857 21.4085L8.61972 22.6944L10.4306 23.7661L11.8913 24.6234C12.495 24.9786 13.0986 25.3582 13.7022 25.6828C14.1264 25.8885 14.6117 25.9235 15.0604 25.7808C15.9175 25.5481 16.7746 25.2909 17.6318 25.0459L18.4044 24.8438C19.2616 24.5989 20.1127 24.3478 20.9759 24.1151C21.1202 24.0756 21.2722 24.0756 21.4165 24.1151C21.9598 24.2866 22.497 24.4764 23.0402 24.6663L25.6298 25.6032C25.9738 25.7318 26.3119 25.8726 26.6559 26.0012C26.9781 26.1336 27.3267 26.1865 27.673 26.1556C28.0193 26.1248 28.3534 26.011 28.6479 25.8236C29.0862 25.5464 29.4253 25.1339 29.6154 24.6468C29.8055 24.1596 29.8367 23.6234 29.7042 23.117C29.6559 22.9026 29.5835 22.7006 29.505 22.4434Z" fill="#F37C4A" fill-opacity="0.75"/>
        <path d="M0.56137 22.5291L2.2334 23.5272L4.04427 24.6356L5.55936 25.5603L7.03823 26.4605L8.56539 27.3974L10.0443 28.2976L11.5895 29.2407C11.6801 29.2958 11.7586 29.3693 11.8491 29.4305C12.226 29.6824 12.6719 29.8067 13.1227 29.7857C16.9859 29.7857 20.8491 29.7857 24.7123 29.7857C25.6962 29.7857 26.6861 29.7857 27.67 29.7857C27.9197 29.7935 28.1675 29.7385 28.3912 29.6257C28.6149 29.5128 28.8077 29.3456 28.9523 29.1389C29.0969 28.9322 29.1889 28.6924 29.22 28.4409C29.2511 28.1895 29.2205 27.9341 29.1308 27.6975C29.1308 27.6975 29.1308 27.6485 29.1308 27.5995C29.2975 27.8134 29.4003 28.0712 29.4271 28.3426C29.4538 28.6139 29.4034 28.8873 29.2817 29.1304C29.1733 29.3926 28.9874 29.6142 28.7495 29.7645C28.5115 29.9148 28.2335 29.9864 27.9537 29.9694H15.6036C14.7948 29.9694 13.9799 29.9694 13.1891 29.9694C12.8446 29.9911 12.5011 29.9125 12.1992 29.7428L10.1348 28.5181L8.64387 27.6056L7.13481 26.681L5.67405 25.7869L4.14085 24.8438L2.61368 23.8824C2.15493 23.6007 1.69618 23.3313 1.23743 23.0496C0.995978 22.8965 0.766601 22.725 0.531189 22.5658L0.56137 22.5291Z" fill="#F37C4A" fill-opacity="0.75"/>
        <path d="M17.7404 8.08328C17.7404 8.42759 17.6056 8.7578 17.3656 9.00127C17.1257 9.24473 16.8002 9.38151 16.4608 9.38151C16.1214 9.38151 15.7959 9.24473 15.5559 9.00127C15.3159 8.7578 15.1811 8.42759 15.1811 8.08328H17.7404Z" fill="#F37C4A" fill-opacity="0.75"/>
        <path d="M13.2374 18.4997C13.666 18.7508 14.0946 18.9957 14.5171 19.2529C14.6282 19.3412 14.758 19.402 14.8963 19.4307C15.0346 19.4594 15.1775 19.4551 15.3139 19.4182C16.5513 19.0447 17.8008 18.714 19.0443 18.3527C19.5996 18.1935 20.1549 18.0159 20.7525 17.8322L19.8471 13.2639H19.9195C19.9734 13.372 20.0178 13.4847 20.0523 13.6007C20.2938 14.7846 20.5332 15.9686 20.7706 17.1525C20.831 17.4648 20.8913 17.7648 20.9577 18.1139L20.5292 18.2241L17.8068 19.0018C17.0221 19.2284 16.2374 19.4489 15.4587 19.6816C15.3741 19.7105 15.2842 19.72 15.1954 19.7094C15.1067 19.6989 15.0214 19.6684 14.9457 19.6203C14.4084 19.2896 13.8592 18.9773 13.3219 18.6528C13.2797 18.6528 13.2616 18.5671 13.2314 18.5181L13.2374 18.4997Z" fill="#F37C4A" fill-opacity="0.75"/>
        <path d="M20.9457 14.6234C21.1309 14.7309 21.342 14.7838 21.5553 14.7763C21.7686 14.7687 21.9756 14.7009 22.1529 14.5805C22.5211 14.3294 22.9316 14.1335 23.3239 13.9069C23.9276 13.564 24.501 13.2333 25.0684 12.872C25.3598 12.7294 25.5874 12.4807 25.706 12.1754C25.8246 11.8701 25.8254 11.5306 25.7083 11.2247C25.8273 11.3452 25.9142 11.4944 25.9606 11.6583C26.0071 11.8222 26.0116 11.9955 25.9738 12.1617C25.945 12.3468 25.8759 12.5231 25.7715 12.6778C25.6671 12.8324 25.53 12.9616 25.3702 13.0557L25.0563 13.2394L22.8169 14.5499C22.6298 14.6601 22.4547 14.801 22.2555 14.8989C22.0378 15.0057 21.7913 15.0366 21.5545 14.9867C21.3177 14.9369 21.1037 14.8092 20.9457 14.6234Z" fill="#F37C4A" fill-opacity="0.75"/>
        <path d="M5.60765 12.2352C6.01624 12.77 6.21998 13.4369 6.18114 14.1125C6.1423 14.788 5.8635 15.4263 5.39638 15.9094C5.17972 16.1559 4.91616 16.3554 4.62154 16.496C4.32691 16.6365 4.00732 16.7152 3.68196 16.7272C3.35661 16.7392 3.03222 16.6843 2.72831 16.5659C2.4244 16.4474 2.14723 16.2679 1.91348 16.038C3.12073 16.6503 4.27364 16.6503 5.20322 15.6338C5.6283 15.1905 5.89811 14.6178 5.97117 14.0038C6.04424 13.3897 5.91652 12.7684 5.60765 12.2352Z" fill="#F37C4A" fill-opacity="0.75"/>
        <path d="M19.0262 3.58237C19.1575 3.77395 19.2501 3.98999 19.2988 4.21805C19.3475 4.4461 19.3513 4.68168 19.3099 4.91121C19.277 5.39105 19.1253 5.85473 18.8689 6.25934C18.6125 6.66395 18.2597 6.99641 17.8431 7.22597C17.5066 7.42329 17.1289 7.53723 16.7408 7.55851C16.3527 7.57979 15.9652 7.50782 15.6097 7.34844C15.3562 7.22173 15.1207 7.06108 14.9095 6.87079C15.3793 7.20294 15.9451 7.36645 16.517 7.33539C17.0889 7.30433 17.6341 7.08048 18.0664 6.69933C18.5109 6.33324 18.8391 5.84222 19.0099 5.28776C19.1806 4.73331 19.1863 4.14007 19.0262 3.58237Z" fill="#F37C4A" fill-opacity="0.75"/>
        <path d="M18.6821 0.0428619C18.7406 0.132218 18.7873 0.228984 18.8209 0.330676C18.9658 1.07777 19.0986 1.82486 19.2374 2.57195C19.2484 2.60795 19.2513 2.646 19.2458 2.68327C19.2403 2.72054 19.2266 2.75608 19.2057 2.78726C19.1849 2.81843 19.1573 2.84444 19.1252 2.86335C19.0931 2.88226 19.0572 2.89359 19.0201 2.89651C17.6866 3.2455 16.2942 3.29566 14.9396 3.04347C14.6861 2.99448 14.4266 2.94549 14.173 2.87201C14.0601 2.82153 13.9545 2.7556 13.8592 2.67605L13.8954 2.61482C14.0704 2.66993 14.2394 2.73117 14.4145 2.76791C15.7547 3.06612 17.1427 3.06612 18.4829 2.76791C18.6239 2.72939 18.7613 2.67815 18.8934 2.61482C19.0563 2.54745 19.0322 2.40661 19.0081 2.26576L18.6398 0.220449C18.6398 0.177583 18.6398 0.134718 18.6398 0.0857279L18.6821 0.0428619Z" fill="#F37C4A" fill-opacity="0.75"/>
        <path d="M11.3964 17.4954L9.27164 16.2217L9.30785 16.1543L11.1549 17.2566L12.658 14.3662C12.5976 15.5358 11.831 16.4238 11.3964 17.4954Z" fill="#F37C4A" fill-opacity="0.75"/>
        <path d="M21.5855 11.3166L21.658 11.4207L21.7425 11.5799C21.0196 12.0079 20.2386 12.3257 19.4246 12.523C19.1459 12.5489 18.865 12.5142 18.6007 12.4213C18.3363 12.3284 18.0945 12.1793 17.8914 11.9841L18.0181 12.0392C18.3091 12.198 18.6328 12.2853 18.9631 12.2938C19.2934 12.3023 19.621 12.2319 19.9195 12.0882C20.4809 11.8616 21.0302 11.586 21.5855 11.3166Z" fill="#F37C4A" fill-opacity="0.75"/>
        <path d="M15.7304 9.4305C15.9627 9.54378 16.2195 9.59579 16.477 9.58172C16.7344 9.56765 16.9842 9.48795 17.2032 9.34999C17.4222 9.21203 17.6034 9.02027 17.73 8.79244C17.8566 8.56461 17.9246 8.30807 17.9276 8.04654C17.9868 8.05707 18.0399 8.09023 18.0758 8.1392C18.1117 8.18817 18.1278 8.24924 18.1207 8.30986C18.1248 8.58822 18.0524 8.86224 17.9116 9.10124C17.7709 9.34025 17.5674 9.53482 17.3239 9.6632C17.075 9.7926 16.7939 9.84477 16.5159 9.81319C16.2379 9.78161 15.9752 9.66768 15.7606 9.48561C15.7475 9.46907 15.7373 9.45045 15.7304 9.4305Z" fill="#F37C4A" fill-opacity="0.75"/>
        <path d="M23.8793 10.4348C23.751 10.379 23.6106 10.3582 23.4719 10.3743C23.3332 10.3904 23.2011 10.4429 23.0885 10.5266C22.9664 10.6658 22.8591 10.8177 22.7686 10.9798C22.7221 11.0622 22.6607 11.1349 22.5875 11.1941C22.4547 11.2737 22.3038 11.3105 22.171 11.3901C22.0382 11.4697 21.8753 11.4452 21.7666 11.2492L22.0805 11.1023C22.195 11.0636 22.3002 11.0011 22.3896 10.9189C22.479 10.8366 22.5505 10.7364 22.5996 10.6246C22.647 10.5001 22.7262 10.3906 22.829 10.3073C22.9318 10.224 23.0546 10.1699 23.1848 10.1506C23.315 10.1313 23.4479 10.1474 23.5699 10.1974C23.692 10.2473 23.7987 10.3292 23.8793 10.4348Z" fill="#F37C4A" fill-opacity="0.75"/>
        <path d="M14.2213 7.97917C14.2862 8.06528 14.339 8.16008 14.3783 8.26086C14.4507 8.62828 14.5051 9.00183 14.5594 9.33251C14.2898 8.93737 14.1698 8.45685 14.2213 7.97917Z" fill="#F37C4A" fill-opacity="0.75"/>
        <path d="M16.7203 11.9228C16.4251 11.5324 16.2526 11.0608 16.2253 10.5695C16.2789 10.6467 16.3254 10.7287 16.3642 10.8145C16.4789 11.139 16.5815 11.4636 16.6901 11.7881C16.6781 11.831 16.6841 11.88 16.7203 11.9228Z" fill="#F37C4A" fill-opacity="0.75"/>
        <path d="M13.2435 18.4997C13.1669 18.4954 13.0916 18.4788 13.0201 18.4507C12.7847 18.3099 12.5553 18.1629 12.326 18.0159C12.2856 17.986 12.2473 17.9532 12.2113 17.9179L12.2535 17.869L13.2374 18.4813L13.2435 18.4997Z" fill="#F37C4A" fill-opacity="0.75"/>
        <path d="M15.9054 1.32272C15.9054 1.47581 15.9054 1.61053 15.9054 1.74526C15.9054 1.782 15.8511 1.81874 15.8209 1.84936C15.7908 1.87998 15.7244 1.78812 15.7244 1.7575C15.7128 1.56785 15.7128 1.37765 15.7244 1.188C15.7244 1.15126 15.8089 1.09002 15.8572 1.09002C15.9054 1.09002 16.0382 1.02878 16.0262 0.906309C16.0141 0.783835 16.0805 0.698104 16.2254 0.716475C16.3702 0.734846 16.4004 0.716475 16.4849 0.716475C16.5694 0.716475 16.7505 0.64299 16.7505 0.85732C16.7505 1.07165 16.5875 0.967546 16.497 0.979794C16.4187 0.986383 16.3399 0.986383 16.2616 0.979794V1.2921L15.9054 1.32272Z" fill="#F37C4A" fill-opacity="0.75"/>
    </g>
    <defs>
        <clipPath id="clip0">
            <rect width="30" height="30" fill="white"/>
        </clipPath>
    </defs>
</svg>
