<svg width="25" height="25" viewBox="0 0 25 25" fill="none" xmlns="http://www.w3.org/2000/svg">
    <path fill-rule="evenodd" clip-rule="evenodd" d="M11.3089 8.68538C11.8486 7.95808 12.0421 7.19157 11.4318 6.51497C10.062 4.59833 9.14084 3.41308 8.56302 2.84229C7.46453 1.75715 5.65747 1.90394 4.70609 2.84137C4.1951 3.34487 4.0221 3.51777 3.49742 4.0507C0.574869 6.97482 2.35719 13.1563 7.09526 17.899C11.8323 22.6407 18.0132 24.424 20.9418 21.4937C21.426 21.0269 21.8359 20.6168 22.1592 20.275C23.0916 19.2896 23.2331 17.5623 22.1531 16.4401C21.5994 15.8648 20.4692 14.988 18.4719 13.5594C17.8602 13.0124 17.1349 13.1309 16.4699 13.5672C16.15 13.777 15.9173 13.9893 15.4777 14.4293L14.6795 15.2279C14.5744 15.3331 13.1469 14.6182 11.7612 13.2311C10.3748 11.8433 9.66037 10.4158 9.76501 10.3111L10.5637 9.51196C10.7032 9.37237 10.7699 9.30479 10.8554 9.21493C11.0335 9.02771 11.181 8.85781 11.3089 8.68538ZM16.1519 16.701L16.9502 15.9023C17.1921 15.6601 17.3489 15.5112 17.4764 15.4086C19.2261 16.6651 20.2394 17.4551 20.6532 17.8852C20.9017 18.1434 20.8631 18.6145 20.6471 18.8428C20.3482 19.1588 19.9598 19.5474 19.4831 20.0071C17.5893 21.9017 12.6 20.4622 8.5679 16.4262C4.53458 12.3889 3.09577 7.3988 4.97526 5.51827C5.49783 4.98753 5.66339 4.82205 6.16709 4.32574C6.35595 4.13965 6.87039 4.09786 7.10013 4.32481C7.545 4.76426 8.3702 5.82088 9.58413 7.51186C9.52128 7.58988 9.44279 7.67805 9.34728 7.77844C9.27717 7.85212 9.21876 7.91132 9.09108 8.03914L8.29314 8.83751C6.93569 10.1948 8.09174 12.505 10.2886 14.704C12.4839 16.9014 14.7949 18.0588 16.1519 16.701Z" fill="#F37C4A"/>
</svg>
