<svg width="30" height="30" viewBox="0 0 30 30" fill="none" xmlns="http://www.w3.org/2000/svg">
    <g clip-path="url(#clip0)">
        <path d="M19.3371 22.3656C18.1715 23.0353 16.8672 23.4268 15.5257 23.5093C15.4862 24.5577 15.8503 25.5812 16.5428 26.3687C16.8062 26.6452 16.9902 26.9876 17.0757 27.3599C17.1612 27.7323 17.1449 28.1207 17.0286 28.4846C16.9079 28.8899 16.6676 29.2493 16.3393 29.5157C16.0109 29.782 15.6098 29.9429 15.1886 29.9771C14.7736 30.0284 14.353 29.9505 13.9839 29.7541C13.6148 29.5576 13.3151 29.2521 13.1257 28.8791C12.907 28.5228 12.8064 28.1065 12.8382 27.6895C12.87 27.2726 13.0326 26.8763 13.3028 26.5574C13.8056 25.9909 14.166 25.3126 14.3543 24.5787C14.4171 24.2528 14.44 23.9211 14.4743 23.6409L11.6171 22.9718C11.6514 23.2692 11.6686 23.6123 11.7257 23.9382C11.8029 24.3355 11.7656 24.7465 11.6181 25.1233C11.4706 25.5001 11.219 25.8272 10.8928 26.0663C10.5665 26.3054 10.179 26.4467 9.77556 26.4737C9.37208 26.5006 8.96925 26.4122 8.61412 26.2187C8.25898 26.0251 7.96618 25.7345 7.76991 25.3806C7.57365 25.0268 7.482 24.6244 7.50569 24.2204C7.52937 23.8164 7.6674 23.4275 7.90366 23.0991C8.13993 22.7707 8.46467 22.5163 8.83999 22.3656L9.70856 21.9996C9.22856 21.4278 8.7657 20.8559 8.25713 20.3527C8.12381 20.2031 7.94324 20.104 7.74563 20.0717C7.54801 20.0394 7.34531 20.076 7.17142 20.1754C6.48808 20.5374 5.8329 20.9503 5.21142 21.4106C4.68397 21.8832 4.30151 22.496 4.10856 23.1777C3.96525 23.5557 3.71754 23.8851 3.39429 24.1277C3.07105 24.3702 2.68559 24.5158 2.28283 24.5475C1.88008 24.5792 1.47662 24.4957 1.11947 24.3067C0.762317 24.1177 0.466191 23.831 0.2656 23.4801C0.0650095 23.1291 -0.0317848 22.7284 -0.0135018 22.3245C0.00478116 21.9206 0.137388 21.5302 0.368865 21.1988C0.600342 20.8675 0.921155 20.6088 1.29392 20.4529C1.66668 20.297 2.07603 20.2503 2.47427 20.3183C3.56919 20.5479 4.71039 20.3429 5.65713 19.7465C5.93142 19.5806 6.22856 19.4319 6.49713 19.2604C6.69582 19.1431 6.85044 18.9637 6.93718 18.7498C7.02392 18.5358 7.03796 18.2993 6.97713 18.0766C6.79427 17.4133 6.6057 16.7499 6.4057 16.0294C6.13713 16.2295 5.83427 16.4354 5.58285 16.647C5.26994 16.8946 4.89386 17.0494 4.49739 17.0938C4.10091 17.1381 3.69996 17.0702 3.34014 16.8978C2.98032 16.7254 2.67607 16.4554 2.46201 16.1185C2.24796 15.7816 2.13268 15.3913 2.12929 14.992C2.1259 14.5928 2.23455 14.2006 2.44286 13.8601C2.65117 13.5196 2.95079 13.2445 3.30763 13.066C3.66448 12.8875 4.06422 12.8128 4.46139 12.8504C4.85856 12.888 5.23721 13.0364 5.55428 13.2787L6.35427 13.9192L7.49713 10.6596C6.95802 10.2215 6.33062 9.90523 5.65796 9.73249C4.9853 9.55976 4.28327 9.53462 3.59999 9.65879C3.07816 9.75797 2.53815 9.6564 2.0879 9.37438C1.63766 9.09237 1.31035 8.65069 1.17142 8.13763C1.01707 7.6172 1.06625 7.0575 1.30899 6.57201C1.55173 6.08652 1.96986 5.71158 2.47861 5.5232C2.98737 5.33481 3.54866 5.34709 4.0487 5.55754C4.54874 5.76799 4.95011 6.16086 5.17142 6.6565C5.19982 6.71791 5.22462 6.78092 5.2457 6.84522C5.4158 7.37857 5.68969 7.87296 6.05158 8.2999C6.41347 8.72684 6.8562 9.0779 7.35427 9.33283C7.62856 9.48151 7.9257 9.76173 8.17142 9.73885C8.41713 9.71598 8.58285 9.34426 8.78856 9.12696C8.99428 8.90965 9.14285 8.76668 9.33142 8.55509C7.83427 7.86886 7.30856 7.03965 7.61713 5.86161C7.7444 5.39139 8.02867 4.97893 8.42268 4.69282C8.81668 4.40672 9.29668 4.2642 9.78285 4.28899C10.1016 4.30518 10.4124 4.39396 10.6916 4.54856C10.9709 4.70315 11.2112 4.91949 11.3943 5.18109C11.7428 5.71234 11.8775 6.35589 11.7714 6.98247L14.4628 6.35342C14.4819 5.3421 14.121 4.36047 13.4514 3.60275C13.1876 3.32645 13.0028 2.98431 12.9164 2.61209C12.8299 2.23988 12.845 1.85125 12.96 1.48685C13.0819 1.08531 13.3213 0.729554 13.6472 0.465533C13.9732 0.201511 14.3707 0.0413465 14.7886 0.00572165C15.2028 -0.0460672 15.623 0.0309672 15.9921 0.226369C16.3611 0.421771 16.6611 0.726076 16.8514 1.09798C17.0704 1.46135 17.168 1.88513 17.13 2.30779C17.092 2.73044 16.9203 3.12996 16.64 3.44834C16.1422 4.0091 15.7873 4.68208 15.6057 5.40984C15.5428 5.7358 15.52 6.06748 15.48 6.35913L18.24 6.98247C18.1566 6.59359 18.1761 6.18968 18.2963 5.81061C18.4166 5.43153 18.6335 5.09038 18.9257 4.82082C19.2932 4.48791 19.7674 4.29728 20.2628 4.28327C20.7753 4.26559 21.2769 4.43337 21.6757 4.75583C22.0745 5.07829 22.3439 5.53382 22.4343 6.03889C22.6571 7.14831 22.0571 8.02898 20.6743 8.57225C21.0514 8.96111 21.3943 9.36142 21.8171 9.71598C21.9612 9.8445 22.1425 9.92376 22.3346 9.94227C22.5267 9.96078 22.7198 9.91757 22.8857 9.81891C23.4289 9.53372 23.9538 9.21476 24.4571 8.8639C25.1246 8.34819 25.6174 7.63941 25.8686 6.83378C26.0068 6.45507 26.2498 6.12348 26.5692 5.87767C26.8886 5.63185 27.2712 5.48193 27.6724 5.44537C28.0736 5.40881 28.477 5.48712 28.8355 5.67118C29.194 5.85523 29.4928 6.13745 29.6971 6.48494C29.9175 6.82953 30.0273 7.23328 30.012 7.6421C29.9967 8.05092 29.8569 8.44529 29.6114 8.7724C29.3896 9.12037 29.0658 9.39122 28.6842 9.54785C28.3027 9.70448 27.8821 9.73923 27.48 9.64735C26.4088 9.42551 25.2934 9.61973 24.36 10.1906C24.0743 10.3622 23.7886 10.5223 23.4914 10.6996C23.2952 10.8101 23.1401 10.9813 23.0494 11.1875C22.9587 11.3938 22.9374 11.6239 22.9886 11.8433C23.0971 12.2722 23.2628 12.6954 23.36 13.13C23.4571 13.5646 23.5028 13.9878 23.5771 14.451C24.1386 14.4981 24.7025 14.3955 25.2114 14.1536C25.6725 13.9103 26.1139 13.6311 26.5314 13.3187C26.8485 13.0611 27.2343 12.9026 27.6407 12.8629C28.0472 12.8232 28.4563 12.9042 28.8171 13.0957C29.1769 13.2727 29.4793 13.548 29.6895 13.8897C29.8996 14.2315 30.0089 14.6257 30.0047 15.0269C30.0005 15.4281 29.8831 15.82 29.6658 16.1572C29.4486 16.4945 29.1405 16.7634 28.7771 16.9329C28.4164 17.1204 28.0072 17.1935 27.604 17.1424C27.2007 17.0913 26.8226 16.9185 26.52 16.647C25.8665 16.0643 25.0553 15.6883 24.1886 15.5661C23.9943 15.5661 23.7943 15.5661 23.6171 15.5318L23.2914 17.4133L24.1771 17.2188C24.5702 17.12 24.9839 17.1412 25.3648 17.2798C25.7458 17.4185 26.0765 17.6681 26.3143 17.9966C26.5606 18.3175 26.7106 18.7019 26.7469 19.1049C26.7831 19.5079 26.7041 19.9129 26.5189 20.2727C26.3338 20.6324 26.0502 20.932 25.7014 21.1366C25.3525 21.3411 24.9526 21.4421 24.5486 21.4278C24.1608 21.421 23.7828 21.3046 23.4583 21.0922C23.1337 20.8797 22.8758 20.5797 22.7143 20.2268C22.5943 19.9924 22.4743 19.7522 22.3714 19.5463L20.2857 21.8738C20.5466 22.5577 20.9516 23.1773 21.4732 23.6904C21.9948 24.2036 22.6208 24.5982 23.3086 24.8475C23.8177 25.0389 24.2304 25.4243 24.4563 25.9195C24.6823 26.4146 24.7031 26.9791 24.5143 27.4895C24.3385 27.9946 23.9795 28.4151 23.5084 28.6678C23.0374 28.9205 22.4887 28.9868 21.9711 28.8537C21.4534 28.7206 21.0047 28.3978 20.7137 27.9492C20.4227 27.5006 20.3107 26.9589 20.4 26.4316C20.6238 25.3468 20.419 24.2175 19.8286 23.2806C19.68 22.9889 19.4971 22.7087 19.3371 22.3656Z" fill="#F37C4A" fill-opacity="0.75"/>
    </g>
    <defs>
        <clipPath id="clip0">
            <rect width="30" height="30" fill="white"/>
        </clipPath>
    </defs>
</svg>
