<svg width="30" height="30" viewBox="0 0 30 30" fill="none" xmlns="http://www.w3.org/2000/svg">
    <g clip-path="url(#clip0)">
        <path d="M24.8992 22.7089H5.12768C5.12768 22.4897 5.07391 22.2913 5.07391 22.0878C5.07391 17.3592 5.07391 12.6289 5.07391 7.89678C5.07391 5.2141 6.20295 2.93331 9.10617 1.36233C14.1465 -1.29947 21.539 0.0784032 23.9314 4.22767C24.5116 5.21237 24.8337 6.27688 24.879 7.3592C24.9798 12.3644 24.9261 17.3749 24.9261 22.3801C24.8992 22.4845 24.8992 22.5732 24.8992 22.7089ZM13.8374 10.0471V17.2235H16.1626V10.0523H19.664V8.18383H16.1626V5.26108H13.8038V8.20993H10.3091V10.0471H13.8374Z" fill="#F37C4A" fill-opacity="0.75"/>
        <path d="M14.9597 30.0157H1.70026C0.456984 30.0157 0.033597 29.6973 0.033597 28.7317C0.033597 27.9228 0.033597 27.1086 0.033597 26.2996C0.0262201 26.0134 0.0935938 25.729 0.231652 25.4635C0.36971 25.1981 0.575589 24.9571 0.836862 24.7552C1.09814 24.5533 1.40939 24.3945 1.75183 24.2886C2.09427 24.1827 2.4608 24.1317 2.8293 24.1388C10.9476 24.1388 19.0681 24.1388 27.1909 24.1388C27.5523 24.1283 27.9127 24.1745 28.2506 24.2747C28.5884 24.3749 28.8968 24.527 29.1572 24.7219C29.4176 24.9168 29.6247 25.1506 29.766 25.4091C29.9074 25.6676 29.9801 25.9456 29.9798 26.2265C30.0336 27.1294 30.0134 28.0376 29.9798 28.9405C29.9798 29.6816 29.4624 29.9843 28.4946 30.0104L14.9597 30.0157Z" fill="#F37C4A" fill-opacity="0.75"/>
    </g>
    <defs>
        <clipPath id="clip0">
            <rect width="30" height="30" fill="white"/>
        </clipPath>
    </defs>
</svg>
