<svg width="30" height="30" viewBox="0 0 30 30" fill="none" xmlns="http://www.w3.org/2000/svg">
    <g clip-path="url(#clip0)">
        <path d="M15.0093 5.72871C15.1816 5.43952 15.2983 5.2605 15.3984 5.07459C18.0276 0.130825 22.9137 -1.48726 27.0271 1.48038C29.4117 3.20175 30.529 5.61166 29.7675 9.97016C29.3006 12.6762 28.0999 14.907 26.6435 16.9589C25.9765 17.9091 25.3095 18.8662 24.6202 19.7888C22.0632 23.2316 19.1171 26.0822 16.2266 29.0429C14.9926 30.3098 15.0204 30.3305 13.7753 29.0429C11.5351 26.633 9.23386 24.3057 7.02152 21.8683C5.99505 20.7314 5.04336 19.495 4.1755 18.1708C3.08401 16.598 2.09867 14.9169 1.22941 13.1444C0.167713 10.8446 -0.354799 8.28322 0.273327 5.64609C0.995951 2.59582 2.91924 1.06725 5.27611 0.337389C7.06977 -0.202116 8.95586 -0.0143244 10.6569 0.873138C12.358 1.7606 13.7842 3.30088 14.7258 5.26739C14.7814 5.38444 14.8703 5.48772 15.0093 5.72871ZM13.0526 8.66881C13.1498 8.89126 13.2352 9.12125 13.3083 9.35736C13.9531 12.5453 14.6035 15.7333 15.2316 18.9213C15.5707 20.6426 15.8653 22.364 16.2211 24.0854C16.2711 24.3264 16.549 24.6569 16.7102 24.65C16.8714 24.6431 17.1327 24.3264 17.2105 24.0785C17.3387 23.602 17.4372 23.114 17.5051 22.6188L18.8503 15.4717C19.1798 15.6799 19.5317 15.8283 19.8953 15.9123C21.6111 15.9536 23.3269 15.9536 25.0426 15.9123C25.2817 15.9123 25.5207 15.6025 25.7597 15.4303C25.5151 15.2651 25.2761 14.9759 25.0315 14.9621C23.8142 14.9139 22.6024 14.9621 21.3851 14.9621C19.9065 14.9621 19.9231 14.9621 19.5118 13.2476C19.434 12.924 19.1338 12.683 18.9559 12.4076C18.778 12.683 18.5112 12.9309 18.4445 13.2476C18.111 14.8451 17.8498 16.4632 17.5329 18.0675C17.2995 19.2587 17.0215 20.4361 16.7603 21.6135C15.9821 18.5701 15.365 15.5612 14.7592 12.5729C14.37 10.6587 14.0421 8.72389 13.6474 6.80973C13.5918 6.54808 13.3083 6.36218 13.1305 6.12119C12.954 6.3156 12.7887 6.52496 12.6357 6.74776C12.5704 6.90509 12.5271 7.07507 12.5079 7.2504L10.8459 14.4388L9.79528 12.9171C9.23942 12.146 8.98928 12.1529 8.53903 12.9791C8.31213 13.4601 8.05763 13.9204 7.7775 14.3562C7.56808 14.636 7.28749 14.8183 6.98261 14.8726C6.2989 14.9484 5.59851 14.8726 4.90924 14.9208C4.68133 14.9208 4.4701 15.2238 4.24776 15.3821C4.45899 15.5474 4.67021 15.8504 4.887 15.8641C5.69301 15.9261 6.51013 15.8641 7.31613 15.8986C7.5153 15.9283 7.71704 15.8816 7.89403 15.7646C8.07102 15.6475 8.21469 15.466 8.30557 15.2444C8.57238 14.7005 8.90034 14.2116 9.23386 13.6539C9.65632 14.2736 9.93981 14.7556 10.2789 15.1618C10.5399 15.4213 10.8189 15.6517 11.1127 15.8504C11.3212 15.5335 11.495 15.1839 11.6296 14.8107C12.1188 12.8896 12.5524 10.8859 13.0526 8.67569V8.66881Z" fill="#F37C4A" fill-opacity="0.75"/>
    </g>
    <defs>
        <clipPath id="clip0">
            <rect width="30" height="30" fill="white"/>
        </clipPath>
    </defs>
</svg>
